
<svg width="100" height="100" viewBox="0 0 100 100" fill="none" xmlns="http://www.w3.org/2000/svg">
<rect width="100" height="100" fill="white"/>
<path d="M79.2886 67.0737C80.0712 67.048 80.7256 66.8299 81.2516 66.4193C81.7776 66.0087 82.201 65.4827 82.5218 64.8412C82.8297 64.2125 83.0478 63.5004 83.1761 62.705C83.3173 61.9223 83.3878 61.1333 83.3878 60.3378V57.0853C83.3878 56.0717 83.5354 55.1351 83.8305 54.2755C84.1384 53.4159 84.6067 52.6717 85.2354 52.0431C85.569 51.7095 85.941 51.408 86.3516 51.1385C86.775 50.8691 87.2369 50.6317 87.7373 50.4265C87.2241 50.2212 86.7493 49.9774 86.3131 49.6951C85.8897 49.4129 85.5176 49.0985 85.1969 48.7521C84.581 48.1106 84.1256 47.3664 83.8305 46.5197C83.5354 45.66 83.3878 44.7298 83.3878 43.7291V40.4574C83.3878 39.6747 83.3429 38.8857 83.2531 38.0902C83.1761 37.2947 83.0029 36.5762 82.7335 35.9347C82.4512 35.306 82.0407 34.7864 81.5018 34.3759C80.9629 33.9653 80.2316 33.7472 79.3078 33.7215L79.6927 31.5083C80.9373 31.5468 82.0022 31.8098 82.8874 32.2974C83.7856 32.7849 84.5233 33.42 85.1007 34.2026C85.755 35.0879 86.2233 36.0823 86.5056 37.1857C86.8007 38.2891 86.9482 39.3796 86.9482 40.4574V43.7291C86.9482 44.4989 87.0188 45.1789 87.1599 45.7691C87.3139 46.3464 87.5384 46.8468 87.8335 47.2702C88.2569 47.8732 88.8407 48.3159 89.5848 48.5981C90.3418 48.8676 91.2463 49.0023 92.2984 49.0023V51.7929C91.3746 51.8057 90.5663 51.9212 89.8735 52.1393C89.1935 52.3446 88.6354 52.6717 88.1992 53.1208C87.7758 53.557 87.4614 54.1023 87.2561 54.7566C87.0509 55.411 86.9482 56.1872 86.9482 57.0853V60.3378C86.9482 61.3642 86.8071 62.397 86.5248 63.4363C86.2425 64.4884 85.8063 65.4442 85.2161 66.3038C84.6131 67.1635 83.8561 67.8691 82.9452 68.4208C82.0342 68.9725 80.9501 69.2612 79.6927 69.2869L79.2886 67.0737Z" fill="black"/>
<path d="M58.9851 52.5243L56.3677 55.0454V62.2432H52.7881V32.6824H56.3677V50.773L58.6964 48.2711L65.5285 41.4197H69.8587L61.4292 50.0994L71.1481 62.2432H66.6255L58.9851 52.5243Z" fill="black"/>
<path d="M31.4831 41.4196H41.9911V62.3778C41.9911 63.7121 41.805 64.8925 41.433 65.9189C41.0737 66.9453 40.5477 67.8049 39.8549 68.4978C39.1492 69.2034 38.2896 69.7359 37.276 70.0951C36.2752 70.4672 35.1333 70.6533 33.8503 70.6533C33.4526 70.6533 33.0677 70.6468 32.6956 70.634C32.3235 70.6212 31.9579 70.6019 31.5986 70.5763C31.3035 70.5506 31.0084 70.5121 30.7133 70.4608C30.4182 70.4223 30.1103 70.3774 29.7896 70.3261L30.0397 67.4008C30.2579 67.4393 30.5337 67.4714 30.8673 67.497C31.2009 67.5355 31.5409 67.5612 31.8873 67.574C32.2209 67.5997 32.5416 67.6125 32.8496 67.6125C33.1703 67.6253 33.4205 67.6317 33.6001 67.6317C34.2673 67.6317 34.896 67.5419 35.4862 67.3623C36.0764 67.1955 36.5896 66.9068 37.0258 66.4963C37.462 66.0857 37.802 65.5404 38.0458 64.8604C38.3024 64.1932 38.4307 63.3657 38.4307 62.3778V44.5181H31.4831V41.4196ZM37.9303 35.9347C37.9303 35.3573 38.1035 34.8698 38.4499 34.4721C38.7964 34.0615 39.3288 33.8562 40.0473 33.8562C40.7658 33.8562 41.3047 34.0615 41.6639 34.4721C42.0232 34.8698 42.2028 35.3573 42.2028 35.9347C42.2028 36.5121 42.0232 36.9996 41.6639 37.3973C41.3047 37.7822 40.7658 37.9747 40.0473 37.9747C39.3288 37.9747 38.7964 37.7822 38.4499 37.3973C38.1035 36.9996 37.9303 36.5121 37.9303 35.9347Z" fill="black"/>
<path d="M20.8791 69.2869C19.6346 69.2484 18.5569 68.9597 17.6459 68.4208C16.735 67.882 15.978 67.1699 15.375 66.2846C14.7976 65.4378 14.3614 64.4884 14.0663 63.4363C13.7712 62.397 13.6236 61.3642 13.6236 60.3378V57.0853C13.6236 55.2378 13.181 53.897 12.2957 53.0631C11.4233 52.2291 10.0825 51.8057 8.27344 51.7929V49.0023C10.0825 49.0023 11.4233 48.5917 12.2957 47.7706C13.181 46.9366 13.6236 45.5895 13.6236 43.7291V40.4574C13.6236 39.4181 13.7584 38.3596 14.0278 37.2819C14.3101 36.1913 14.7527 35.2162 15.3557 34.3566C15.9202 33.5355 16.658 32.8683 17.5689 32.3551C18.4799 31.8291 19.5833 31.5468 20.8791 31.5083L21.2833 33.7215C20.3595 33.7472 19.6218 33.9653 19.0701 34.3759C18.5312 34.7864 18.127 35.306 17.8576 35.9347C17.5753 36.5762 17.3957 37.2947 17.3187 38.0902C17.2418 38.8857 17.2033 39.6747 17.2033 40.4574V43.7291C17.2033 45.2687 16.844 46.6223 16.1255 47.7898C15.4199 48.9446 14.3229 49.8234 12.8346 50.4265C14.3229 51.0166 15.4199 51.8955 16.1255 53.0631C16.8312 54.2178 17.1904 55.5585 17.2033 57.0853V60.3378C17.2033 61.1333 17.2674 61.9223 17.3957 62.705C17.524 63.5004 17.7485 64.2125 18.0693 64.8412C18.3772 65.4827 18.7878 66.0087 19.301 66.4193C19.827 66.8299 20.4878 67.048 21.2833 67.0737L20.8791 69.2869Z" fill="black"/>
</svg>
