<svg width="512" height="512" viewBox="0 0 512 512" fill="none" xmlns="http://www.w3.org/2000/svg">
<g clip-path="url(#clip0_1_5)">
<path d="M510.996 256C510.996 -3.04336 515.044 1.00395 256 1.00395C-3.04361 1.00395 1.00586 1.0042 1.00389 256C1.00191 510.996 -3.04407 510.996 256 510.996C515.044 510.996 510.996 515.044 510.996 256Z" fill="white"/>
<path d="M96.86 384.84C80.06 384.84 71.66 380.36 71.66 371.4V332.76C71.66 323.8 80.06 319.32 96.86 319.32H110.3C127.1 319.32 135.5 323.8 135.5 332.76V371.4C135.5 380.36 127.1 384.84 110.3 384.84H96.86ZM149.462 441.96C141.062 441.96 136.862 434.96 136.862 420.96V418.02C136.862 404.02 141.062 397.02 149.462 397.02H365.762C374.162 397.02 378.362 404.02 378.362 418.02V420.96C378.362 434.96 374.162 441.96 365.762 441.96H149.462ZM404.887 384.84C388.087 384.84 379.687 380.36 379.687 371.4V332.76C379.687 323.8 388.087 319.32 404.887 319.32H418.327C435.127 319.32 443.527 323.8 443.527 332.76V371.4C443.527 380.36 435.127 384.84 418.327 384.84H404.887Z" fill="black"/>
</g>
<defs>
<clipPath id="clip0_1_5">
<rect width="512" height="512" fill="white"/>
</clipPath>
</defs>
</svg>
