<svg width="512" height="512" viewBox="0 0 512 512" fill="none" xmlns="http://www.w3.org/2000/svg">
<g clip-path="url(#clip0_1_5)">
<path d="M510.996 256C510.996 -3.04359 515.044 1.00372 256 1.00372C-3.04361 1.00372 1.00586 1.00397 1.00389 256C1.00191 510.996 -3.04407 510.996 256 510.996C515.044 510.996 510.996 515.044 510.996 256Z" fill="white"/>
<path fill-rule="evenodd" clip-rule="evenodd" d="M191 370C197.284 407.458 229.861 436 269.105 436C308.348 436 340.926 407.458 347.21 370H191Z" fill="black"/>
<rect x="31" y="270" width="100" height="100" rx="14" fill="black"/>
<rect x="376" y="270" width="100" height="100" rx="14" fill="black"/>
<ellipse cx="387" cy="265" rx="62" ry="64" fill="white"/>
<ellipse cx="42" cy="265" rx="62" ry="64" fill="white"/>
</g>
<defs>
<clipPath id="clip0_1_5">
<rect width="512" height="512" fill="white"/>
</clipPath>
</defs>
</svg>
